PathFileType	4	(X/Y/Z)	C:\Users\86182\Documents\cortex\Trimmed_M4_L8.trc
DataRate	CameraRate	NumFrames	NumMarkers	Units	OrigDataRate	OrigDataStartFrame	OrigNumFrames
100.00	100.00	       154	2	mm	100.00	361	       901
Frame#	Time	gripper			box			
		X1	Y1	Z1	X2	Y2	Z2	

361	3.600	276.04330	151.11633	286.81952	276.78384	149.41537	151.32089	
362	3.610	276.04282	151.12299	287.23035	276.75745	149.41475	151.73732	
363	3.620	276.04471	151.12880	287.63690	276.74530	149.41319	152.14941	
364	3.630	276.04996	151.13290	288.03754	276.74759	149.41090	152.55313	
365	3.640	276.05939	151.13524	288.43243	276.75980	149.40843	152.94560	
366	3.650	276.07260	151.13705	288.82086	276.77792	149.40671	153.32629	
367	3.660	276.08905	151.14009	289.19861	276.80182	149.40674	153.69542	
368	3.670	276.10837	151.14470	289.55991	276.83151	149.40898	154.05228	
369	3.680	276.12955	151.14926	289.90076	276.86301	149.41397	154.39507	
370	3.690	276.15244	151.15176	290.22116	276.88974	149.42326	154.72166	
371	3.700	276.17896	151.15176	290.52380	276.90588	149.43864	155.03067	
372	3.710	276.21042	151.15047	290.81165	276.90756	149.45990	155.32196	
373	3.720	276.24490	151.14949	291.08554	276.89319	149.48320	155.59540	
374	3.730	276.27640	151.15039	291.34314	276.86456	149.50214	155.84877	
375	3.740	276.29727	151.15431	291.57971	276.82736	149.51108	156.07785	
376	3.750	276.30316	151.16135	291.78986	276.78949	149.50835	156.27881	
377	3.760	276.29532	151.17058	291.96884	276.75925	149.49664	156.44952	
378	3.770	276.27847	151.18115	292.11450	276.74316	149.48151	156.58971	
379	3.780	276.25751	151.19286	292.22861	276.74518	149.46869	156.70140	
380	3.790	276.23651	151.20549	292.31589	276.76642	149.46204	156.78920	
381	3.800	276.21878	151.21840	292.38181	276.80548	149.46266	156.85904	
382	3.810	276.20709	151.23082	292.43066	276.85892	149.46938	156.91670	
383	3.820	276.20316	151.24228	292.46564	276.92209	149.47974	156.96643	
384	3.830	276.20694	151.25259	292.48972	276.98993	149.49100	157.01031	
385	3.840	276.21689	151.26166	292.50598	277.05746	149.50070	157.04843	
386	3.850	276.23053	151.26938	292.51709	277.12012	149.50737	157.07977	
387	3.860	276.24527	151.27563	292.52478	277.17450	149.51054	157.10352	
388	3.870	276.25876	151.28033	292.52985	277.21869	149.51056	157.11946	
389	3.880	276.26923	151.28346	292.53232	277.25211	149.50824	157.12808	
390	3.890	276.27579	151.28513	292.53223	277.27533	149.50447	157.13065	
391	3.900	276.27856	151.28558	292.52991	277.28998	149.50018	157.12923	
392	3.910	276.27817	151.28516	292.52600	277.29822	149.49615	157.12617	
393	3.920	276.27567	151.28413	292.52161	277.30261	149.49303	157.12350	
394	3.930	276.27249	151.28293	292.51782	277.30545	149.49110	157.12251	
395	3.940	276.27014	151.28204	292.51559	277.30826	149.49039	157.12370	
396	3.950	276.26962	151.28183	292.51532	277.31149	149.49063	157.12668	
397	3.960	276.27084	151.28221	292.51666	277.31442	149.49142	157.13022	
398	3.970	276.27255	151.28276	292.51852	277.31537	149.49220	157.13249	
399	3.980	276.27292	151.28282	292.51941	277.31168	149.49213	157.13132	
400	3.990	276.27005	151.28169	292.51801	277.30002	149.49010	157.12444	
401	4.000	276.26245	151.27876	292.51367	277.27713	149.48486	157.11006	
402	4.010	276.24994	151.27383	292.50677	277.24106	149.47536	157.08755	
403	4.020	276.23373	151.26733	292.49823	277.19247	149.46117	157.05777	
404	4.030	276.21613	151.26015	292.48932	277.13531	149.44292	157.02333	
405	4.040	276.19931	151.25325	292.48105	277.07623	149.42245	156.98819	
406	4.050	276.18475	151.24725	292.47400	277.02252	149.40248	156.95659	
407	4.060	276.17322	151.24254	292.46857	276.98035	149.38562	156.93188	
408	4.070	276.16550	151.23936	292.46494	276.95343	149.37379	156.91582	
409	4.080	276.16245	151.23785	292.46332	276.94247	149.36771	156.90833	
410	4.090	276.16425	151.23778	292.46356	276.94513	149.36702	156.90782	
411	4.100	276.17029	151.23859	292.46494	276.95679	149.37045	156.91202	
412	4.110	276.17911	151.23953	292.46661	276.97211	149.37605	156.91852	
413	4.120	276.18915	151.23999	292.46783	276.98633	149.38177	156.92531	
414	4.130	276.19888	151.23972	292.46817	276.99631	149.38588	156.93076	
415	4.140	276.20694	151.23880	292.46771	277.00049	149.38725	156.93370	
416	4.150	276.21201	151.23759	292.46674	276.99857	149.38550	156.93390	
417	4.160	276.21347	151.23648	292.46558	276.99152	149.38104	156.93195	
418	4.170	276.21136	151.23582	292.46472	276.98135	149.37498	156.92897	
419	4.180	276.20660	151.23593	292.46448	276.97101	149.36891	156.92613	
420	4.190	276.20053	151.23697	292.46521	276.96347	149.36446	156.92427	
421	4.200	276.19455	151.23880	292.46680	276.96060	149.36267	156.92377	
422	4.210	276.18970	151.24104	292.46893	276.96268	149.36372	156.92459	
423	4.220	276.18634	151.24324	292.47107	276.96826	149.36696	156.92635	
424	4.230	276.18417	151.24500	292.47287	276.97504	149.37103	156.92841	
425	4.240	276.18256	151.24605	292.47391	276.98047	149.37447	156.92986	
426	4.250	276.18088	151.24631	292.47409	276.98242	149.37595	156.92995	
427	4.260	276.17871	151.24580	292.47339	276.97992	149.37491	156.92838	
428	4.270	276.17596	151.24464	292.47192	276.97330	149.37167	156.92551	
429	4.280	276.17297	151.24310	292.47000	276.96432	149.36731	156.92213	
430	4.290	276.17065	151.24149	292.46808	276.95560	149.36316	156.91899	
431	4.300	276.17020	151.24017	292.46658	276.94986	149.36044	156.91675	
432	4.310	276.17230	151.23940	292.46588	276.94907	149.35992	156.91591	
433	4.320	276.17697	151.23917	292.46594	276.95364	149.36176	156.91658	
434	4.330	276.18344	151.23938	292.46664	276.96243	149.36545	156.91843	
435	4.340	276.19022	151.23987	292.46765	276.97293	149.37003	156.92087	
436	4.350	276.19547	151.24046	292.46869	276.98245	149.37430	156.92329	
437	4.360	276.19794	151.24103	292.46948	276.98865	149.37715	156.92519	
438	4.370	276.19720	151.24142	292.46988	276.99014	149.37784	156.92613	
439	4.380	276.19360	151.24153	292.46973	276.98657	149.37611	156.92584	
440	4.390	276.18802	151.24124	292.46899	276.97876	149.37236	156.92439	
441	4.400	276.18164	151.24062	292.46790	276.96838	149.36751	156.92216	
442	4.410	276.17593	151.23987	292.46667	276.95795	149.36279	156.91968	
443	4.420	276.17218	151.23926	292.46570	276.94983	149.35931	156.91754	
444	4.430	276.17130	151.23895	292.46533	276.94592	149.35776	156.91628	
445	4.440	276.17368	151.23900	292.46552	276.94687	149.35820	156.91620	
446	4.450	276.17899	151.23923	292.46619	276.95172	149.36023	156.91722	
447	4.460	276.18628	151.23935	292.46683	276.95837	149.36295	156.91884	
448	4.470	276.19403	151.23917	292.46716	276.96432	149.36537	156.92049	
449	4.480	276.20078	151.23862	292.46704	276.96790	149.36674	156.92174	
450	4.490	276.20551	151.23784	292.46649	276.96857	149.36682	156.92241	
451	4.500	276.20795	151.23709	292.46585	276.96664	149.36574	156.92250	
452	4.510	276.20853	151.23660	292.46536	276.96341	149.36403	156.92221	
453	4.520	276.20786	151.23662	292.46533	276.96072	149.36253	156.92184	
454	4.530	276.20636	151.23724	292.46591	276.96048	149.36220	156.92175	
455	4.540	276.20441	151.23843	292.46707	276.96362	149.36354	156.92213	
456	4.550	276.20236	151.23996	292.46863	276.96964	149.36646	156.92294	
457	4.560	276.20062	151.24149	292.47015	276.97684	149.37019	156.92395	
458	4.570	276.19925	151.24274	292.47144	276.98334	149.37378	156.92485	
459	4.580	276.19785	151.24362	292.47229	276.98737	149.37628	156.92529	
460	4.590	276.19598	151.24413	292.47275	276.98755	149.37694	156.92493	
461	4.600	276.19330	151.24432	292.47278	276.98337	149.37537	156.92363	
462	4.610	276.18982	151.24425	292.47244	276.97543	149.37189	156.92163	
463	4.620	276.18591	151.24393	292.47180	276.96548	149.36729	156.91949	
464	4.630	276.18228	151.24342	292.47101	276.95563	149.36253	156.91786	
465	4.640	276.17960	151.24294	292.47028	276.94785	149.35854	156.91714	
466	4.650	276.17825	151.24263	292.46985	276.94360	149.35611	156.91747	
467	4.660	276.17841	151.24260	292.46982	276.94330	149.35565	156.91872	
468	4.670	276.18011	151.24275	292.47012	276.94659	149.35709	156.92065	
469	4.680	276.18341	151.24284	292.47046	276.95255	149.35994	156.92294	
470	4.690	276.18817	151.24263	292.47055	276.96002	149.36360	156.92514	
471	4.700	276.19409	151.24202	292.47031	276.96814	149.36751	156.92676	
472	4.710	276.20050	151.24106	292.46970	276.97617	149.37120	156.92749	
473	4.720	276.20639	151.23993	292.46887	276.98352	149.37440	156.92743	
474	4.730	276.21088	151.23892	292.46805	276.98975	149.37703	156.92690	
475	4.740	276.21344	151.23828	292.46753	276.99460	149.37901	156.92625	
476	4.750	276.21414	151.23819	292.46747	276.99796	149.38037	156.92567	
477	4.760	276.21335	151.23860	292.46790	276.99997	149.38116	156.92528	
478	4.770	276.21176	151.23935	292.46860	277.00082	149.38150	156.92506	
479	4.780	276.20990	151.24025	292.46948	277.00067	149.38142	156.92505	
480	4.790	276.20804	151.24112	292.47028	276.99979	149.38104	156.92517	
481	4.800	276.20609	151.24188	292.47098	276.99844	149.38048	156.92537	
482	4.810	276.20367	151.24255	292.47156	276.99658	149.37967	156.92549	
483	4.820	276.20032	151.24319	292.47202	276.99393	149.37845	156.92535	
484	4.830	276.19608	151.24379	292.47235	276.99020	149.37663	156.92484	
485	4.840	276.19168	151.24419	292.47247	276.98547	149.37439	156.92395	
486	4.850	276.18796	151.24422	292.47229	276.98050	149.37212	156.92284	
487	4.860	276.18558	151.24387	292.47174	276.97644	149.37048	156.92165	
488	4.870	276.18494	151.24321	292.47095	276.97437	149.37003	156.92056	
489	4.880	276.18634	151.24242	292.47018	276.97498	149.37094	156.91975	
490	4.890	276.18976	151.24170	292.46960	276.97809	149.37297	156.91945	
491	4.900	276.19467	151.24113	292.46936	276.98279	149.37541	156.91974	
492	4.910	276.20013	151.24069	292.46924	276.98767	149.37755	156.92050	
493	4.920	276.20526	151.24028	292.46915	276.99149	149.37886	156.92148	
494	4.930	276.20959	151.23984	292.46899	276.99353	149.37923	156.92239	
495	4.940	276.21277	151.23941	292.46872	276.99393	149.37885	156.92314	
496	4.950	276.21448	151.23911	292.46851	276.99295	149.37791	156.92366	
497	4.960	276.21454	151.23904	292.46844	276.99091	149.37662	156.92401	
498	4.970	276.21313	151.23932	292.46866	276.98843	149.37523	156.92422	
499	4.980	276.21060	151.23996	292.46918	276.98648	149.37424	156.92441	
500	4.990	276.20731	151.24094	292.47003	276.98633	149.37424	156.92464	
501	5.000	276.20343	151.24220	292.47113	276.98843	149.37543	156.92488	
502	5.010	276.19946	151.24356	292.47238	276.99219	149.37744	156.92506	
503	5.020	276.19592	151.24480	292.47351	276.99625	149.37959	156.92509	
504	5.030	276.19324	151.24577	292.47437	276.99963	149.38135	156.92493	
505	5.040	276.19144	151.24643	292.47498	277.00177	149.38248	156.92461	
506	5.050	276.19040	151.24684	292.47534	277.00278	149.38303	156.92419	
507	5.060	276.18994	151.24704	292.47552	277.00293	149.38316	156.92387	
508	5.070	276.19022	151.24701	292.47552	277.00269	149.38313	156.92384	
509	5.080	276.19147	151.24669	292.47525	277.00256	149.38315	156.92429	
510	5.090	276.19394	151.24600	292.47467	277.00287	149.38342	156.92543	
511	5.100	276.19754	151.24500	292.47379	277.00381	149.38403	156.92737	
512	5.110	276.20181	151.24377	292.47275	277.00537	149.38507	156.93010	
513	5.120	276.20584	151.24258	292.47174	277.00757	149.38651	156.93343	
514	5.130	276.20859	151.24170	292.47095	277.01025	149.38823	156.93694	
